/* XPM */
static char *_582d9c3e91741cffc8653a3d6d546933MCVcIxnVYFFdr59[] = {
/* columns rows colors chars-per-pixel */
"128 128 80 1 ",
"  c #000000",
". c #0C0404",
"X c #120606",
"o c #170808",
"O c #1C0A0A",
"+ c #240D0D",
"@ c #2A0F0F",
"# c #2E1111",
"$ c #331212",
"% c #3C1515",
"& c #441818",
"* c #4B1B1B",
"= c #541E1E",
"- c #581F1F",
"; c #5D2121",
": c #642323",
"> c #6D2626",
", c #742929",
"< c #7E2D2D",
"1 c #822E2E",
"2 c #8C3232",
"3 c #923434",
"4 c #9B3737",
"5 c #9E3838",
"6 c #A43A3A",
"7 c #AB3D3D",
"8 c #B23F3F",
"9 c #B64141",
"0 c #BE4343",
"q c #C44545",
"w c #C94747",
"e c #CE4949",
"r c #D34B4B",
"t c #DB4E4E",
"y c #E04F4F",
"u c #E45151",
"i c #EB5353",
"p c #F35656",
"a c #F75858",
"s c #FF5B5B",
"d c #FC645E",
"f c #FB695F",
"g c #FA6C60",
"h c #F77564",
"j c #F87162",
"k c #F47C66",
"l c #EF8D6C",
"z c #F38067",
"x c #F28469",
"c c #F0896B",
"v c #ED936E",
"b c #EA9C71",
"n c #DFBD7C",
"m c #E8A173",
"M c #E8A273",
"N c #E5A975",
"B c #E4AE77",
"V c #E3B178",
"C c #E1B67A",
"Z c #E0BA7B",
"A c #DDC37E",
"S c #DCC57F",
"D c #DBC780",
"F c #DCC680",
"G c #DBC981",
"H c #D9CE82",
"J c #D7D384",
"K c #D7D585",
"L c #D9D083",
"P c #D8D183",
"I c #D6D885",
"U c #D5DC87",
"Y c #D4DF88",
"T c #CFEB8C",
"R c #CFED8D",
"E c #D2E389",
"W c #D1E78B",
"Q c #D0E98B",
"! c #D0EA8C",
"~ c #CEF28F",
/* pixels */
"~~~~~~~~~~~~~~~~~~~~~~~~~~~~~~~~~~~~~~~~~~~~~~~~~~~~~~~~~~~~~~~~~~~~~~~~~~~~~~~~~~~~~~~~~~~~~~~~~~~~~~~~~~~~~~~~~~~~~~~~~~~~~~~~",
"~~~~~~~~~~~~~~~~~~~~~~~~~~~~~~~~~~~~~~~~~~~~~~~~~~~~~~~~~~~~~~~~~~~~~~~~~~~~~~~~~~~~~~~~~~~~~~~~~~~~~~~~~~~~~~~~~~~~~~~~~~~~~~~~",
"~~~~~~~~~~~~~~~~~~~~~~~~~~~~~~~~~~~~~~~~~~~~~~~~~~~~~~~~~~~~~~~~~~~~~~~~~~~~~~~~~~~~~~~~~~~~~~~~~~~~~~~~~~~~~~~~~~~~~~~~~~~~~~~~",
"~~~~~~~~~~~~~~~~~~~~~~~~~~~~~~~~~~~~~~~~~~~~~~~~~~~~~~~~~~~~~~~~~~~~~~~~~~~~~~~~~~~~~~~~~~~~~~~~~~~~~~~~~~~~~~~~~~~~~~~~~~~~~~~~",
"~~~~~~~~~~~~~~~~~~~~~~~~~~~~~~~~~~~~~~~~~~~~~~~~~~~~~~~~~~~~~~~~~~~~~~~~~~~~~~~~~~~~~~~~~~~~~~~~~~~~~~~~~~~~~~~~~~~~~~~~~~~~~~~~",
"~~~~~~~~~~~~~~~~~~~~~~~~~~~~~~~~~~YLY~~~~~~~~~~~~~~~~~~~~~~~~~~~~~~~~~~~~~~~~~~~~~~~~~~~~~~~~~~~~~~~~~~~~~~~~~~~~~~~~~~~~~~~~~~~",
"~~~~~~~~~~~~~~~~~~~~~~~~~~~QLZmlksssssgklbVSHLKIYEWR~~~~~~~~~~~~~~~~~~~~~~~~~~~~~~~~~~~~~~~~~~~~~~~~~~~~~~~~~~~~~~~~~~~~~~~~~~~~",
"~~~~~~~~~~~~~~~~~~~~~~~~LmhssssssssssssssssssssssssssdgjkxlvbNnKT~~~~~~~~~~~~~~~~~~~~~~~~~~~~~~~~~~~~~~~~~~~~~~~~~~~~~~~~~~~~~~~",
"~~~~~~~~~~~~~~~~~~~~TAvdsssssssssssssssssssssssssssssssssssssssssfkvNAI~~~~~~~~~~~~~~~~~~~~~~~~~~~~~~~~~~~~~~~~~~~~~~~~~~~~~~~~~",
"~~~~~~~~~~~~~~~~WGBxsssssssssssssssssssssssssssssssssssssssssssssssssssshvBFE~~~~~~~~~~~~~~~~~~~~~~~~~~~~~~~~~~~~~~~~~~~~~~~~~~~",
"~~~~~~~~~~~KZmxfsssssssssssssssssssssssssssssssssssssssssssssssssssssssssssssdkvmVSKW~~~~~~~~~~~~~~~~~~~~~~~~~~~~~~~~~~~~~~~~~~~",
"~~~~~~~~~~mssssssssssssssssssssssssssssssssssssssssssssssssssssssssssssssssssssssssssdjN~~~~~~~~~~~~~~~~~~~~~~~~~~~~~~~~~~~~~~~~",
"~~~~~~~~~~bsssssssssssssssssssssssssssssssssssssssssssssssssssssssssssssssssssssssssssssx!~~~~~~~~~~~~~~~~~~~~~~~~~~~~~~~~~~~~~~",
"~~~~~~~~~~bssssssssssssssssssssssssssssssssssssssssssssssssssssssssssssssssssssssssssssssjI~~~~~~~~~~~~~~~~~~~~~~~~~~~~~~~~~~~~~",
"~~~~~~~~~~vsssssssssssssssssssssssssssssssssssssssssssssssssssssssssssssssssssssssssssssssdS~~~~~~~~~~~~~~~~~~~~~~~~~~~~~~~~~~~~",
"~~~~~~~~~~vsssssssssssssssssssssssssssssssssssssssssssssssssssssssssssssssssssssssssssssssssN~~~~~~~~~~~~~~~~~~~~~~~~~~~~~~~~~~~",
"~~~~~~~~~~lssssssssssssssssssssssssssssssssssssssssssssssssssssssssssssssssssssssssssssssssssv~~~~~~~~~~~~~~~~~~~~~~~~~~~~~~~~~~",
"~~~~~~~~~~xsssssssssssssssssssssssssssssssssssssssssssssssssssssssssssssssssssssssssssssssssss~~~~~~~~~~~~~~~~~~~~~~~~~~~~~~~~~~",
"~~~~~~~~~~xsssssssssssssssssssssssssssssssssssssssssssssssssssssssssssssssssssssssssssssssssssK~~~~~~~~~~~~~~~~~~~~~~~~~~~~~~~~~",
"~~~~~~~~~~ksssssssssssssssssssssssssssssssssssssssssssssssssssssssssssssssssssssssssssssssssssC~~~~~~~~~~~~~~~~~~~~~~~~~~~~~~~~~",
"~~~~~~~~~~lsssssssssssssssssssssssssssssssssssssssssssssssssssssssssssssssssssssssssssssssssssv~~~~~~~~~~~~~~~~~~~~~~~~~~~~~~~~~",
"~~~~~~~~~~bsssssssssssssssssssssssssssssssssssssssssssssssssssssssssssssssssssssssssssssssssssh~~~~~~~~~~~~~~~~~~~~~~~~~~~~~~~~~",
"~~~~~~~~~~VssssssssssssssssssssssssssssssssssssssssssssssssssssssssssssssssssssssssssssssssssssR~~~~~~~~~~~~~~~~~~~~~~~~~~~~~~~~",
"~~~~~~~~~~SssssssssssssssssssssssssssssssssssssssssssssssssssssssssssssssssssssssssssssssssssssH~~~~~~~~~~~~~~~~~~~~~~~~~~~~~~~~",
"~~~~~~~~~~IssssssssssssssssssssssssssssssssssssssssssssssssssssssssssssssssssssssssssssssssssssB~~~~~~~~~~~~~~~~~~~~~~~~~~~~~~~~",
"~~~~~~~~~~Rssssssssssssssssssssssssssssssssssssssssssssssssssssssssssssssssssssssssssssssssssssv~~~~~~~~~~~~~~~~~~~~~~~~~~~~~~~~",
"~~~~~~~~~~~fsssssssssssssssssssssssssssssssssssssssssssssssssssssssssssssssssssssssssssssssssssk~~~~~~~~~~~~~~~~~~~~~~~~~~~~~~~~",
"~~~~~~~~~~~ksssssssssssssssssssssssssssssssssssssssssssssssssssssssssssssssssssssssssssssssssssf~~~~~~~~~~~~~~~~~~~~~~~~~~~~~~~~",
"~~~~~~~~~~~lssssssssssssssssssssssssssssssssssssssssssssssssssssssssssssssssssssssssssssssssssssQ~~~~~~~~~~~~~~~~~~~~~~~~~~~~~~~",
"~~~~~~~~~~~vssssssssssssssssssssssssssssssssssssssssssssssssssssssssssssssssssssssssssssssssssssK~~~~~~~~~~~~~~~~~~~~~~~~~~~~~~~",
"~~~~~~~~~~~mssssssssssssssssssssssssssssssssssssssssssssssssssssssssssssssssssssssssssssssssssssA~~~~~~~~~~~~~~~~~~~~~~~~~~~~~~~",
"~~~~~~~~~~~Bsssssssssssssssssu000000rissssssssssssssssssssq2:**>3rssssssssssssssssssssssssssssssN~~~~~~~~~~~~~~~~~~~~~~~~~~~~~~~",
"~~~~~~~~~~~Zsssssssssssssssss3         %,tssssssssssssss5O        @8ssssssssssssssssssssssssssssv~~~~~~~~~~~~~~~~~~~~~~~~~~~~~~~",
"~~~~~~~~~~~Fsssssssssssssssss3            ;isssssssssss=            2sssssssssssssssssssssssssssz~~~~~~~~~~~~~~~~~~~~~~~~~~~~~~~",
"~~~~~~~~~~~Lsssssssssssssssss3  %0005<;+   Oqsssssssss=   X,qiu9:    7ssssssssssssssssssssssssssd~~~~~~~~~~~~~~~~~~~~~~~~~~~~~~~",
"~~~~~~~~~~~Usssssssssssssssss3  *ssssssa:   .usssssss3   *isssssst$  .tssssssssssssssssssssssssssY~~~~~~~~~~~~~~~~~~~~~~~~~~~~~~",
"~~~~~~~~~~~Wsssssssssssssssss3  *ssssssss6   &ssssssi.  $assssssssuO  %ssssssssssssssssssssssssssS~~~~~~~~~~~~~~~~~~~~~~~~~~~~~~",
"~~~~~~~~~~~~gssssssssssssssss3  *sssssssss,   wsssss2   essssssssss6   qsssssssssssssssssssssssssN~~~~~~~~~~~~~~~~~~~~~~~~~~~~~~",
"~~~~~~~~~~~~vssssssssssssssss3  *sssssssssi.  =sssss@  -ssssssssssss@  ;sssssssssssssssssssssssssl~~~~~~~~~~~~~~~~~~~~~~~~~~~~~~",
"~~~~~~~~~~~~Assssssssssssssss3  *ssssssssss1   ssssu   qssssssssssss4  Xsssssssssssssssssssssssssj~~~~~~~~~~~~~~~~~~~~~~~~~~~~~~",
"~~~~~~~~~~~~Tssssssssssssssss3  *ssssssssssr   rsss6  .ssssssssssssst   rsssssssssssssssssssssssssT~~~~~~~~~~~~~~~~~~~~~~~~~~~~~",
"~~~~~~~~~~~~~zsssssssssssssss3  *ssssssssssp   9sss1  %ssssssssssssss.  7sssssssssssssssssssssssssL~~~~~~~~~~~~~~~~~~~~~~~~~~~~~",
"~~~~~~~~~~~~~Bsssssssssssssss3  *sssssssssss.  6sss>  =ssssssssssssss@  4sssssssssssssssssssssssssZ~~~~~~~~~~~~~~~~~~~~~~~~~~~~~",
"~~~~~~~~~~~~~Ksssssssssssssss3  *sssssssssss@  3sss;  ;ssssssssssssss$  1sssssssssssssssssssssssssN~~~~~~~~~~~~~~~~~~~~~~~~~~~~~",
"~~~~~~~~~~~~~~fssssssssssssss3  *sssssssssss@  3sss:  ;ssssssssssssss$  1sssssssssssssssssssssssssb~~~~~~~~~~~~~~~~~~~~~~~~~~~~~",
"~~~~~~~~~~~~~~xssssssssssssss3  *sssssssssss   6sss,  =ssssssssssssss@  3sssssssssssssssssssssssssl~~~~~~~~~~~~~~~~~~~~~~~~~~~~~",
"~~~~~~~~~~~~~~dssssssssssssss3  *ssssssssssu   9sss1  $ssssssssssssss.  6sssssssssssssssssssssssssz~~~~~~~~~~~~~~~~~~~~~~~~~~~~~",
"~~~~~~~~~~~~~Ysssssssssssssss3  *ssssssssssq   ysss7  .ssssssssssssst   esssssssssssssssssssssssssj~~~~~~~~~~~~~~~~~~~~~~~~~~~~~",
"~~~~~~~~~~~~~nsssssssssssssss3  *ssssssssss,  Ossssi   qssssssssssss6  .ssssssssssssssssssssssssssd~~~~~~~~~~~~~~~~~~~~~~~~~~~~~",
"~~~~~~~~~~~~~msssssssssssssss3  *sssssssssu   >sssss%  >ssssssssssss&  ;sssssssssssssssssssssssssss~~~~~~~~~~~~~~~~~~~~~~~~~~~~~",
"~~~~~~~~~~~~~xsssssssssssssss3  *sssssssss>   tsssss6  .tssssssssss0   qsssssssssssssssssssssssssss~~~~~~~~~~~~~~~~~~~~~~~~~~~~~",
"~~~~~~~~~~~~~dsssssssssssssss3  *ssssssss6   :sssssss@  $sssssssssuO  &sssssssssssssssssssssssssssd~~~~~~~~~~~~~~~~~~~~~~~~~~~~~",
"~~~~~~~~~~~~Yssssssssssssssss3  *ssssssa:   Opsssssss9   *sssssssi$   rsssssssssssssssssssssssssssc~~~~~~~~~~~~~~~~~~~~~~~~~~~~~",
"~~~~~~~~~~~~Assssssssssssssss3  %0005<;+   .qsssssssss;   $9sssp6O   <ssssssssssssssssssssssssssssV~~~~~~~~~~~~~~~~~~~~~~~~~~~~~",
"~~~~~~~~~~~~mssssssssssssssss3            +rsssssssssss=     #@     ,sssssssssssssssssssssssssssssK~~~~~~~~~~~~~~~~~~~~~~~~~~~~~",
"~~~~~~~~~~~~kssssssssssssssss3         X:0ssssssssssssss5o        @8sssssssssssssssssssssssssssssd~~~~~~~~~~~~~~~~~~~~~~~~~~~~~~",
"~~~~~~~~~~~Rsssssssssssssssssw<<<<<<26qsssssssssssssssssss7=@..@:0sssssssssssssssssssssssssssssssl~~~~~~~~~~~~~~~~~~~~~~~~~~~~~~",
"~~~~~~~~~~~HsssssssssssssssssssssssssssssssssssssssssssssssssssssssssssssssssssssssssssssssssssssV~~~~~~~~~~~~~~~~~~~~~~~~~~~~~~",
"~~~~~~~~~~~NsssssssssssssssssssssssssssssssssssssssssssssssssssssssssssssssssssssssssssssssssssssK~~~~~~~~~~~~~~~~~~~~~~~~~~~~~~",
"~~~~~~~~~~~xssssssssssssssssssssssssssssssssssssssssssssssssssssssssssssssssssssssssssssssssssssg~~~~~~~~~~~~~~~~~~~~~~~~~~~~~~~",
"~~~~~~~~~~~dssssssssssssssssssssssssssssssssssssssssssssssssssssssssssssssssssssssssssssssssssssb~~~~~~~~~~~~~~~~~~~~~~~~~~~~~~~",
"~~~~~~~~~~JsssssssssssssssssssssssssssssssssssssssssssssssssssssssssssssssssssssssssssssssssssssD~~~~~~~~~~~~~~~~~~~~~~~~~~~~~~~",
"~~~~~~~~~~Cssssssssssssssssssssssssssssssssssssssssssssssssssssssssssssssssssssssssssssssssssssd~~~~~~~~~~~~~~~~~~~~~~~~~~~~~~~~",
"~~~~~~~~~~Nssssssssssssssssssssssssssssssssssssssssssssssssssssssssssssssssssssssssssssssssssssv~~~~~~~~~~~~~~~~~~~~~~~~~~~~~~~~",
"~~~~~~~~~~vssssssssssssssssssssssssssssssssssssssssssssssssssssssssssssssssssssssssssssssssssssn~~~~~~~~~~~~~~~~~~~~~~~~~~~~~~~~",
"~~~~~~~~~~kssssssssssssssssssssssssssssssssssssssssssssssssssssssssssssssssssssssssssssssssssssR~~~~~~~~~~~~~~~~~~~~~~~~~~~~~~~~",
"~~~~~~~~~~gsssssssssssssssssssssssssssssssssssssssssssssssssssssssssssssssssssssssssssssssssssx~~~~~~~~~~~~~~~~~~~~~~~~~~~~~~~~~",
"~~~~~~~~~~ssssssssssssssssssssssssssssssssssssssssssssssssssssssssssssssssssssssssssssssssssssC~~~~~~~~~~~~~~~~~~~~~~~~~~~~~~~~~",
"~~~~~~~~~EssssssssssssssssssssssssssssssssssssssssssssssssssssssssssssssssssssssssssssssssssssE~~~~~~~~~~~~~~~~~~~~~~~~~~~~~~~~~",
"~~~~~~~~~Hsssssssssssssssssssssssss9,%O O%>7sssssssssssq<<<<<<<1370asssssssssssssssssssssssssh~~~~~~~~~~~~~~~~~~~~~~~~~~~~~~~~~~",
"~~~~~~~~~nsssssssssssssssssssssssq#         +8sssssssss1           .>isssssssssssssssssssssssm~~~~~~~~~~~~~~~~~~~~~~~~~~~~~~~~~~",
"~~~~~~~~~Bssssssssssssssssssssss7     X$O     7ssssssss1             OyssssssssssssssssssssssH~~~~~~~~~~~~~~~~~~~~~~~~~~~~~~~~~~",
"~~~~~~~~~bsssssssssssssssssssssq    >rsssy1.   wsssssss1  ;ssssir7*   $sssssssssssssssssssssd~~~~~~~~~~~~~~~~~~~~~~~~~~~~~~~~~~~",
"~~~~~~~~~vsssssssssssssssssssspO  .rsssssssuO  +pssssss1  ;ssssssss8   7ssssssssssssssssssssl~~~~~~~~~~~~~~~~~~~~~~~~~~~~~~~~~~~",
"~~~~~~~~~xssssssssssssssssssss<   9sssssssssr   ,ssssss1  ;sssssssss>  =ssssssssssssssssssssZ~~~~~~~~~~~~~~~~~~~~~~~~~~~~~~~~~~~",
"~~~~~~~~~hsssssssssssssssssssso  *sssssssssss>  .psssss1  ;sssssssss5  #ssssssssssssssssssssW~~~~~~~~~~~~~~~~~~~~~~~~~~~~~~~~~~~",
"~~~~~~~~~dsssssssssssssssssss9   rsssssssssssi   5sssss1  ;sssssssssq  Osssssssssssssssssssj~~~~~~~~~~~~~~~~~~~~~~~~~~~~~~~~~~~~",
"~~~~~~~~Rssssssssssssssssssss<  $sssssssssssss=  ;sssss1  ;sssssssss4  %sssssssssssssssssssv~~~~~~~~~~~~~~~~~~~~~~~~~~~~~~~~~~~~",
"~~~~~~~~Essssssssssssssssssss%  >sssssssssssss2  +sssss1  ;sssssssss>  ;sssssssssssssssssssV~~~~~~~~~~~~~~~~~~~~~~~~~~~~~~~~~~~~",
"~~~~~~~~KssssssssssssssssssssO  4sssssssssssss0   sssss1  ;ssssssss0.  0sssssssssssssssssssL~~~~~~~~~~~~~~~~~~~~~~~~~~~~~~~~~~~~",
"~~~~~~~~Ussssssssssssssssssss.  7sssssssssssssr   issss1  ;ssssssu:   *ssssssssssssssssssssR~~~~~~~~~~~~~~~~~~~~~~~~~~~~~~~~~~~~",
"~~~~~~~~Wssssssssssssssssssss   0ssssssssssssst   tssss1  O%%%%#X    %isssssssssssssssssssk~~~~~~~~~~~~~~~~~~~~~~~~~~~~~~~~~~~~~",
"~~~~~~~~~ssssssssssssssssssss.  9ssssssssssssst   yssss1           .,sssssssssssssssssssssb~~~~~~~~~~~~~~~~~~~~~~~~~~~~~~~~~~~~~",
"~~~~~~~~~dsssssssssssssssssss+  7sssssssssssssw   pssss1  o%%%%.  -pssssssssssssssssssssssn~~~~~~~~~~~~~~~~~~~~~~~~~~~~~~~~~~~~~",
"~~~~~~~~~gsssssssssssssssssss#  1sssssssssssss6   sssss1  ;ssss2  OassssssssssssssssssssssE~~~~~~~~~~~~~~~~~~~~~~~~~~~~~~~~~~~~~",
"~~~~~~~~~hsssssssssssssssssss;  =sssssssssssss,  $sssss1  ;ssssaO  <sssssssssssssssssssssj~~~~~~~~~~~~~~~~~~~~~~~~~~~~~~~~~~~~~~",
"~~~~~~~~~zsssssssssssssssssss6  Xassssssssssss#  ,sssss1  ;sssss8  .ussssssssssssssssssssb~~~~~~~~~~~~~~~~~~~~~~~~~~~~~~~~~~~~~~",
"~~~~~~~~~csssssssssssssssssssp.  7sssssssssssr   rsssss1  ;ssssss%  =ssssssssssssssssssssA~~~~~~~~~~~~~~~~~~~~~~~~~~~~~~~~~~~~~~",
"~~~~~~~~~vssssssssssssssssssss:  @sssssssssss*  %ssssss1  ;ssssssr   qsssssssssssssssssss!~~~~~~~~~~~~~~~~~~~~~~~~~~~~~~~~~~~~~~",
"~~~~~~~~~Nssssssssssssssssssssu   1sssssssss7   0ssssss1  ;sssssss:  @ssssssssssssssssssk~~~~~~~~~~~~~~~~~~~~~~~~~~~~~~~~~~~~~~~",
"~~~~~~~~~nsssssssssssssssssssss1   3sssssss7   =sssssss1  ;sssssssi.  3sssssssssssssssssN~~~~~~~~~~~~~~~~~~~~~~~~~~~~~~~~~~~~~~~",
"~~~~~~~~~Hsssssssssssssssssssssa%   $3rpt6%   @isssssss1  ;ssssssss1  .issssssssssssssssL~~~~~~~~~~~~~~~~~~~~~~~~~~~~~~~~~~~~~~~",
"~~~~~~~~~Essssssssssssssssssssssp*           $issssssss1  ;sssssssssO  :sssssssssssssssd~~~~~~~~~~~~~~~~~~~~~~~~~~~~~~~~~~~~~~~~",
"~~~~~~~~~~ssssssssssssssssssssssss8@       O4ssssssssss1  ;sssssssss7   essssssssssssssz~~~~~~~~~~~~~~~~~~~~~~~~~~~~~~~~~~~~~~~~",
"~~~~~~~~~~jssssssssssssssssssssssssse<;&-,qssssssssssssy00rssssssssss000tssssssssssssssb~~~~~~~~~~~~~~~~~~~~~~~~~~~~~~~~~~~~~~~~",
"~~~~~~~~~~xssssssssssssssssssssssssssssssssssssssssssssssssssssssssssssssssssssssssssssV~~~~~~~~~~~~~~~~~~~~~~~~~~~~~~~~~~~~~~~~",
"~~~~~~~~~~vssssssssssssssssssssssssssssssssssssssssssssssssssssssssssssssssssssssssssssG~~~~~~~~~~~~~~~~~~~~~~~~~~~~~~~~~~~~~~~~",
"~~~~~~~~~~NssssssssssssssssssssssssssssssssssssssssssssssssssssssssssssssssssssssssssssE~~~~~~~~~~~~~~~~~~~~~~~~~~~~~~~~~~~~~~~~",
"~~~~~~~~~~nsssssssssssssssssssssssssssssssssssssssssssssssssssssssssssssssssssssssssssd~~~~~~~~~~~~~~~~~~~~~~~~~~~~~~~~~~~~~~~~~",
"~~~~~~~~~~Hsssssssssssssssssssssssssssssssssssssssssssssssssssssssssssssssssssssssssssk~~~~~~~~~~~~~~~~~~~~~~~~~~~~~~~~~~~~~~~~~",
"~~~~~~~~~~Esssssssssssssssssssssssssssssssssssssssssssssssssssssssssssssssssssssssssssv~~~~~~~~~~~~~~~~~~~~~~~~~~~~~~~~~~~~~~~~~",
"~~~~~~~~~~~sssssssssssssssssssssssssssssssssssssssssssssssssssssssssssssssssssssssssssB~~~~~~~~~~~~~~~~~~~~~~~~~~~~~~~~~~~~~~~~~",
"~~~~~~~~~~~gssssssssssssssssssssssssssssssssssssssssssssssssssssssssssssssssssssssssssH~~~~~~~~~~~~~~~~~~~~~~~~~~~~~~~~~~~~~~~~~",
"~~~~~~~~~~~zssssssssssssssssssssssssssssssssssssssssssssssssssssssssssssssssssssssssssR~~~~~~~~~~~~~~~~~~~~~~~~~~~~~~~~~~~~~~~~~",
"~~~~~~~~~~~vsssssssssssssssssssssssssssssssssssssssssssssssssssssssssssssssssssssssssh~~~~~~~~~~~~~~~~~~~~~~~~~~~~~~~~~~~~~~~~~~",
"~~~~~~~~~~~Nsssssssssssssssssssssssssssssssssssssssssssssssssssssssssssssssssssssssssv~~~~~~~~~~~~~~~~~~~~~~~~~~~~~~~~~~~~~~~~~~",
"~~~~~~~~~~~FsssssssssssssssssssssssssssssssssssssssssssssssssssssssssssssssssssssssssZ~~~~~~~~~~~~~~~~~~~~~~~~~~~~~~~~~~~~~~~~~~",
"~~~~~~~~~~~EsssssssssssssssssssssssssssssssssssssssssssssssssssssssssssssssssssssssssI~~~~~~~~~~~~~~~~~~~~~~~~~~~~~~~~~~~~~~~~~~",
"~~~~~~~~~~~~fsssssssssssssssssssssssssssssssssssssssssssssssssssssssssssssssssssssssd~~~~~~~~~~~~~~~~~~~~~~~~~~~~~~~~~~~~~~~~~~~",
"~~~~~~~~~~~~xsssssssssssssssssssssssssssssssssssssssssssssssssssssssssssssssssssssssz~~~~~~~~~~~~~~~~~~~~~~~~~~~~~~~~~~~~~~~~~~~",
"~~~~~~~~~~~~Nsssssssssssssssssssssssssssssssssssssssssssssssssssssssssssssssssssssssd~~~~~~~~~~~~~~~~~~~~~~~~~~~~~~~~~~~~~~~~~~~",
"~~~~~~~~~~~~AssssssssssssssssssssssssssssssssssssssssssssssssssssssssssssssssssssssssH~~~~~~~~~~~~~~~~~~~~~~~~~~~~~~~~~~~~~~~~~~",
"~~~~~~~~~~~~EssssssssssssssssssssssssssssssssssssssddfgjhkkxxlvvbbmNNBVCZnADHLKIUEWQR~~~~~~~~~~~~~~~~~~~~~~~~~~~~~~~~~~~~~~~~~~~",
"~~~~~~~~~~~~~dssdfgghkkzxclvvbbmNNVVZnASGHLKIYEW!R~~~~~~~~~~~~~~~~~~~~~~~~~~~~~~~~~~~~~~~~~~~~~~~~~~~~~~~~~~~~~~~~~~~~~~~~~~~~~~",
"~~~~~~~~~~~~~~~~~~~~~~~~~~~~~~~~~~~~~~~~~~~~~~~~~~~~~~~~~~~~~~~~~~~~~~~~~~~~~~~~~~~~~~~~~~~~~~~~~~~~~~~~~~~~~~~~~~~~~~~~~~~~~~~~",
"~~~~~~~~~~~~~~~~~~~~~~~~~~~~~~~~~~~~~~~~~~~~~~~~~~~~~~~~~~~~~~~~~~~~~~~~~~~~~~~~~~~~~~~~~~~~~~~~~~~~~~~~~~~~~~~~~~~~~~~~~~~~~~~~",
"~~~~~~~~~~~~~~~~~~~~~~~~~~~~~~~~~~~~~~~~~~~~~~~~~~~~~~~~~~~~~~~~~~~~~~~~~~~~~~~~~~~~~~~~~~~~~~~~~~~~~~~~~~~~~~~~~~~~~~~~~~~~~~~~",
"~~~~~~~~~~~~~~~~~~~~~~~~~~~~~~~~~~~~~~~~~~~~~~~~~~~~~~~~~~~~~~~~~~~~~~~~~~~~~~~~~~~~~~~~~~~~~~~~~~~~~~~~~~~~~~~~~~~~~~~~~~~~~~~~",
"~~~~~~~~~~~~~~~~~~~~~~~~~~~~~~~~~~~~~~~~~~~~~~~~~~~~~~~~~~~~~~~~~~~~~~~~~~~~~~~~~~~~~~~~~~~~~~~~~~~~~~~~~~~~~~~~~~~~~~~~~~~~~~~~",
"~~~~~~~~~~~~~~~~~~~~~~~~~~~~~~~~~~~~~~~~~~~~~~~~~~~~~~~~~~~~~~~~~~~~~~~~~~~~~~~~~~~~~~~~~~~~~~~~~~~~~~~~~~~~~~~~~~~~~~~~~~~~~~~~",
"~~~~~~~~~~~~~~~~~~~~~~~~~~~~~~~~~~~~~~~~~~~~~~~~~~~~~~~~~~~~~~~~~~~~~~~~~~~~~~~~~~~~~~~~~~~~~~~~~~~~~~~~~~~~~~~~~~~~~~~~~~~~~~~~",
"~~~~~~~~~~~~~~~~~~~~~~~~~~~~~~~~~~~~~~~~~~~~~~~~~~~~~~~~~~~~~~~~~~~~~~~~~~~~~~~~~~~~~~~~~~~~~~~~~~~~~~~~~~~~~~~~~~~~~~~~~~~~~~~~",
"~~~~~~~~~~~~~~~~~~~~~~~~~~~~~~~~~~~~~~~~~~~~~~~~~~~~~~~~~~~~~~~~~~~~~~~~~~~~~~~~~~~~~~~~~~~~~~~~~~~~~~~~~~~~~~~~~~~~~~~~~~~~~~~~",
"~~~~~~~~~~~~~~~~~~~~~~~~~~~~~~~~~~~~~~~~~~~~~~~~~~~~~~~~~~~~~~~~~~~~~~~~~~~~~~~~~~~~~~~~~~~~~~~~~~~~~~~~~~~~~~~~~~~~~~~~~~~~~~~~",
"~~~~~~~~~~~~~~~~~~~~~~~~~~~~~~~~~~~~~~~~~~~~~~~~~~~~~~~~~~~~~~~~~~~~~~~~~~~~~~~~~~~~~~~~~~~~~~~~~~~~~~~~~~~~~~~~~~~~~~~~~~~~~~~~",
"~~~~~~~~~~~~~~~~~~~~~~~~~~~~~~~~~~~~~~~~~~~~~~~~~~~~~~~~~~~~~~~~~~~~~~~~~~~~~~~~~~~~~~~~~~~~~~~~~~~~~~~~~~~~~~~~~~~~~~~~~~~~~~~~",
"~~~~~~~~~~~~~~~~~~~~~~~~~~~~~~~~~~~~~~~~~~~~~~~~~~~~~~~~~~~~~~~~~~~~~~~~~~~~~~~~~~~~~~~~~~~~~~~~~~~~~~~~~~~~~~~~~~~~~~~~~~~~~~~~",
"~~~~~~~~~~~~~~~~~~~~~~~~~~~~~~~~~~~~~~~~~~~~~~~~~~~~~~~~~~~~~~~~~~~~~~~~~~~~~~~~~~~~~~~~~~~~~~~~~~~~~~~~~~~~~~~~~~~~~~~~~~~~~~~~"
};
