/* XPM */
static char *_3d78ec4885346ecf25efeef03adfd8aQ3ycUPsUYUXFnZfz[] = {
/* columns rows colors chars-per-pixel */
"100 100 92 1 ",
"  c #DF6B1E",
". c #EE730F",
"X c #F77905",
"o c #FF7E00",
"O c #F3770C",
"+ c #F77809",
"@ c #F97A08",
"# c #E46F1C",
"$ c #EC7315",
"% c #E67019",
"& c #EA7119",
"* c #F17610",
"= c #C55D3D",
"- c #C85F3C",
"; c #D86527",
": c #DB6B25",
"> c #D5662E",
", c #D9662B",
"< c #D7682A",
"1 c #DB692A",
"2 c #CD6234",
"3 c #C6603F",
"4 c #CB6139",
"5 c #D26431",
"6 c #E16B22",
"7 c #8D3F77",
"8 c #853C7E",
"9 c #8A3D7C",
"0 c #923F75",
"q c #913E79",
"w c #BA5746",
"e c #BD5A44",
"r c #B3544E",
"t c #B9564A",
"y c #BA584A",
"u c #AC4F56",
"i c #A64D5E",
"p c #AA4E5B",
"a c #AE5155",
"s c #AC505A",
"d c #B15352",
"f c #9C4667",
"g c #9E4967",
"h c #96436E",
"j c #9A466B",
"k c #9D4969",
"l c #8E4076",
"z c #87407F",
"x c #8C427B",
"c c #944272",
"v c #994371",
"b c #904179",
"n c #A14667",
"m c #A34B62",
"M c #AA4F61",
"N c #A55062",
"B c #C25C42",
"V c #7C3787",
"C c #7F3986",
"Z c #77348F",
"A c #7B358C",
"S c #7D3889",
"D c #6D2E97",
"F c #6E2C99",
"G c #6C2F98",
"H c #6D2F98",
"J c #712F94",
"K c #712E97",
"L c #782F95",
"P c #732F99",
"I c #6E3197",
"U c #6D3098",
"Y c #6F3098",
"T c #723092",
"R c #733393",
"E c #753391",
"W c #733294",
"Q c #753294",
"! c #753494",
"~ c #783390",
"^ c #783492",
"/ c #703199",
"( c #823685",
") c #833A83",
"_ c #833B83",
"` c #853C81",
"' c #833A84",
"] c #813987",
"[ c #883A81",
"{ c #893C81",
"} c #813689",
"| c #833888",
/* pixels */
"oooooooooooooooooooooooooooooooooooooooooooooooooooooooooooooooooooooooooooooooooooooooooo#O#Ooooooo",
"oooooooooooooooooooooooooooooooooooooooooooooooooooooooooooooooooooooooo#O#O#OO#O#OO#O#.>:-1,%oXoooo",
"oooooooooooooooooooooooooooooooooooooooooooooooooooooooooooooooooooooo>>-,-,25>-,25>->-5drhua4@*@ooo",
"oooooooooooooooooooooooooooooooooooooooooooooooooooooooooooooooooooo$:aahphpgmpvpgmpvpcg9hAxAvi-OXoo",
"oooooooooooooooooooooooooooooooooooooooooooooooooooooooooooooooooooX4p_cA9W_TVAE]TVATCW(EEDYYY!g4ooo",
"ooooooooooooooooooooooooooooooooooooooooooooooooooooooooooooooooooo#mm]WDHDYHDHDYHDHDHDYIIIIYYYYBooo",
"ooooooooooooooooooooooooooooooooooooooooooooooooooooooooooooooooooo+#8IIIIIIIIIIIIIIIIDDHH//YYWooooo",
"ooooooooooooooooooooooooooooooooooooooooooooooooooooo#O#####oooooooohDHHHHPHHHHPHHHHHHHHHDHVW_$Ooooo",
"oooooooooooooooooooooooooooo#Oooooooooooooooooooo##>>45BBB5-:XXoooo#5^HDHEKED^EKEDKHHHHTWA`l|cmp6ooo",
"ooooooooooooooooooooo###O#>>,$oXooooooooooooooo$2rBaphg0bxvk5*$Xoo+pmwKW`xASA]AA]AWYHYHWAcmprBe=$ooo",
"ooooooooooooooo##O#>2B4-2Bsda5X*@ooooooooooooo%sh9x[7^]WQWQQxi6%oooo:n`mdhmBwBee2uVDPHDErwe=$ooooooo",
"oooooooooooo#>24-5Bsmcjhf9_c`ii4OXooooooooooo%n(AWZEWY//YP///|{$Oooooo++2r:ooooo+mgHKY/cm@oooooooooo",
"oooooooooo$6iamjhg9]_EAWEWAIYY~k4ooooooooooo%iV]WYP///P/KWKKKKVpoooooooooooooooo+paWPYYPxOoooooooooo",
"oooooooooXdn]_9A~EWADDHDDIIIYYYYBoooooooooo%s_VYYY/YHKKKDDDHDHKfooooooooooooooooX2dAPY/Px@oooooooooo",
"ooooooooo2_(K]YHDDIIIIIIDD//YYIoooooooooooXa87/PH/YPKDTDDDDHDDooooooooooooooooooo+j~KY/PzXoooooooooo",
"ooooooooXi(LHIIIIDDHPHHHHHHDD`$Ooooooooooo27_/YPPYPDD`9~QWQ/QctooooooooooooooooooXuSPY/PxOoooooooooo",
"oooooooo c(HDPHHHHHHHHDDEKKWxydp6ooooooooXscWY/Y/HAA|vhiep8A8lx-ooooooooooooooooo+n`PY/P]@oooooooooo",
"oooooooo>hDHHHHDKEKKWS]AZEA]chp=$oooooooo:c(YYPHYVm9hrr:ooo++2r:oooooooooooooooooXtAPY/PVXoooooooooo",
"oooooooXaLPHHDH]`SEA]ccmddewrr:oooooooooo;`LY/PYAa9j:ooooooooooooooooooooooooooooXd`KY/PxXoooooooooo",
"ooooooo 7EHDHYWvcidewrr:ooooooooooooooooo>WPHYPAnpr:ooooooooooooooooooooooooooooo+gCPY/PbOoooooooooo",
"ooooooo2_WY/YY^9r:ooooooooooooooooooooooo=IPKYP^_doooooooooooooooooooooooooooooooXt8/YYP|+oooooooooo",
"ooooooXd^HY/YV0eoooooooooooooooooooooooo+hAHP/HLc2oooooooooooooooooooooooooooooooXe_YPY/]$oooooooooo",
"oooooo57VYYHPABooooooooooooooooooooooooo+mVYH///c5:#####O#####oooooooooooooooooooXefYKY/[$Xooooooooo",
"ooooo%rCWY/H/(yooooo#Ooooooooooooooooooo+m_DYHHHQBrBBB--2BBB5<:XXoooooooooooooooo+phYPY/]BOooooooooo",
"ooooXdcEYPY/Ap:o##>>B$oXoooooooooooooooo+mdKDYHIZ~c9llhcfllchs5,OXoooooooooooooooX-wT/YYPx+ooooooooo",
"oooo2cj/YPPY8d>2dBmpk5X$@ooooooooooooooo+pclDDYHYWWWWWTWEWEWTE9h,%XooooooooooooooX24AYPY/9$ooooooooo",
"oooXdh/Y/HY[7jmg99V9AimBOXooooooooooooooo+gcVDDDDDDDDDHDDDDIYH/]]6%XooooooooooooooXdcYKY/b$Xoooooooo",
"ooo h_YYHPE_V_VVQEWIYYWhBooooooooooooooooo+gk9IIIIIIIIIIIIIDDYH/|]&%Xooooooooooooo+phYPY/[BOoooooooo",
"ooo#cQYYKIEAWEKDDDIIYYYYBoooooooooooooooooo+gh8HHHHHPHHHHHP/DDYH/|_6%oooooooooooooX-w~PY/Px@oooooooo",
"ooo>WKYYH^EKDDIIDDW/YYWfoooooooooooooooooooo+k_ADHDHDKDDLDDKQDDYHY_V@$XoooooooooooX2-A/YYPx+oooooooo",
"ooo=~PHHHIIIDDDHHHHHDW#Ooooooooooooooooooooooo:g]AEEEEEEZEEKQ~DDH/KAv@%ooooooooooooXp9Y/Y/n$oooooooo",
"oo+gAKH/DDHHHHHHHHKW/ypp6ooooooooooooooooooooooo++-ddddddder__SDHYKY7v&Oooooooooooo+pjYKY/9*Xooooooo",
"ooXp~KYPPPHHHDKW/SE~Sh8m$ooooooooooooooooooooooooooooooooooo+gkxHHP/Y[N$oooooooooooX-hYKY/[eXooooooo",
"oo+hVPHHHAKWSSZ~Sc8hdrr:ooooooooooooooooooooooooooooooooooooo+gk9HYKYP]&oooooooooooX-=EPYYPkOooooooo",
"oo+gEKY/PW`mdcmddrr:ooooooooooooooooooooooooooooooooooooooooooXrfZYKY/A*OooooooooooX2-8YPYPb$ooooooo",
"ooXpTP/YPA#+2r:oooooooooooooooooooooooooooooooooooooooooooooooo+f7HPY/cm@oooooooooooXt_YKY/]$Xoooooo",
"oo+h_PKYP_#oooooooooooooooooooooooooooooooooooooooooooooooooooo+prWKY/PzXoooooooooooXBjYPY/[BOoooooo",
"oo+pCHP/HL$.oooooooooooooooooooooooooooooooooooooooooooooooooooX2u~KY/PkOooooooooooo+pBTKY/Px@oooooo",
"ooXB_H/KYEM#ooooooooooooooooooooooooooooooooooooooooooooooooooO#:9AHYYPxOoooooooooooX2rWPY/PxOoooooo",
"oo+m3DHP/H^$.ooooooooooooooooooooooooooooooooooooooooooooooO:1,--9EYY/HAOooooooooooooXiSKY/Px@oooooo",
"oo+at^HHPPAk2$##O#OO#O#O#OooooooooooooooooooooooooooooooO:1,Brpch}^YY/PAooooooooooooo+f~PY/P`Ooooooo",
"ooo+hkHYDHPLtB--,25>->-,>%oXoooooooooooooooooooooooooO:1,Bricc9^9W/Y/Y/qoooooooooooooXaCKY/PS@oooooo",
"ooo+atEDYYIT~fcvpkmpvpcpp4@*@ooooooooooooooO##O#OOO:1,Briccb_S/////P/KVyooooooooooooo+f~PY/P]Ooooooo",
"oooo+hkDIYHYIWETATVAECW_^vi-OXoooooooooooO%544,2,5>ediccb_S//////KKWKocdoooooooooooooXuSKY/PS@oooooo",
"oooo+atADDDHDDHDYHDHDHDYYY!g4oooooooooooo:enjhpksmnccb_S//////KKKDDDk$hdooooooooooooo+f~KY/PSOoooooo",
"ooooo+hh!IIIIIIIIIIIIIIIYYYYBoooooooooooOeg_AEVE_A`SSY/////KKKDWAKcj4mp:oooooooooooooXpAKY/P|Ooooooo",
"ooooo+ph9KHHPHHPHHHHHH//YYWoooooooooooooX$mY/////P//////KKKDWA9`9]pnre:oooooooooooooo+fZPY/PAOoooooo",
"ooooooo>_E(DHKDKED^EKTKAW_$OoooooooooooooeYYYYWKKWKWWWKKDWA9xsnp-w=e:ooooooooooooooooXdVYY/PA@oooooo",
"ooooooooo>gSAAEAA~]AA]ASAcmp6oooooooooooO6hYWDDDDDDDDDWA9xsnp-e=$oooooooooooooooooooo+m8YY//Cooooooo",
"ooooooooooo++-deedBee2wBwBe=$ooooooooooX4ihZWKEDEAVWA9xsnp-e=$ooooooooooooooooooooooo+mjYYYYjooooooo",
"ooooooooooooooooooooooooooooooooooooooooo$tx_]A^`|V]knp-e=$oooooooooooooooooooooooooo+pBCYWcdooooooo",
"ooooooooooooooooooooooooooooooooooooooooooo@+:eaBeB22e=$oooooooooooooooooooooooooooooX22mZohdooooooo",
"ooooooooooooooooooooooooooooooooooooooooooooooooooooooooooooooooooooooooooooooooooooooo$5BoaBooooooo",
"ooooooooooooooooooooooooooooooooooooooooooooooooooooooooooooooooooooooooooooooooooooooooo@o#$ooooooo",
"oooooooooooooooooooooooooooooooooooooooooooooooooooooooooooooooooooooooooooooooooooooooooooooooooooo",
"oooooooooooooooooooooooooooooooooooooooooooooooooooooooooooooooooooooooooooooooooooooooooooooooooooo",
"oooooooooooooooooooooooooooooooooooooooooooooooooooooooooooooooooooooooooooooooooooooooooooooooooooo",
"oooooooooooooooooooooooooooooooooooooooooooooooooooooooooooooooooooooooooooooooooooooooooooooooooooo",
"oooooooooooooooooooooooooooooooooooooooooooooooooooooooooooooooooooooooooooooooooooooooooooooooooooo",
"oooooooooooooooooooooooooooooooooooooooooooooooooooooooooooooooooooooooooooooooooooooooooooooooooooo",
"oooooooooooooooooooooooooooooooooooooooooooooooooooooooooooooooooooooooooooooooooooooooooooooooooooo",
"oooooooooooooooooooooooooooooooooooooooooooooooooooooooooooooooooooooooooooooooooooooooooooooooooooo",
"oooooooooooooooooooooooooooooooooooooooooooooooooooooooooooooooooooooooooooooooooooooooooooooooooooo",
"oooooooooooooooooooooooooooooooooooooooooooooooooooooooooooooooooooooooooooooooooooooooooooooooooooo",
"oooooooooooooooooooooooooooooooooooooooooooooooooooooooooooooooooooooooooooooooooooooooooooooooooooo",
"oooooooooooooooooooooooooooooooooooooooooooooooooooooooooooooooooooooooooooooooooooooooooooooooooooo",
"oooooooooooooooooooooooooooooooooooooooooooooooooooooooooooooooooooooooooooooooooooooooooooooooooooo",
"oooooooooooooooooooooooooooooooooooooooooooooooooooooooooooooooooooooooooooooooooooooooooooooooooooo",
"oooooooooooooooooooooooooooooooooooooooooooooooooooooooooooooooooooooooooooooooooooooooooooooooooooo",
"oooooooooooooooooooooooooooooooooooooooooooooooooooooooooooooooooooooooooooooooooooooooooooooooooooo",
"oooooooooooooooooooooooooooooooooooooooooooooooooooooooooooooooooooooooooooooooooooooooooooooooooooo",
"oooooooooooooooooooooooooooooooooooooooooooooooooooooooooooooooooooooooooooooooooooooooooooooooooooo",
"oooooooooooooooooooooooooooooooooooooooooooooooooooooooooooooooooooooooooooooooooooooooooooooooooooo",
"oooooooooooooooooooooooooooooooooooooooooooooooooooooooooooooooooooooooooooooooooooooooooooooooooooo",
"oooooooooooooooooooooooooooooooooooooooooooooooooooooooooooooooooooooooooooooooooooooooooooooooooooo",
"oooooooooooooooooooooooooooooooooooooooooooooooooooooooooooooooooooooooooooooooooooooooooooooooooooo",
"oooooooooooooooooooooooooooooooooooooooooooooooooooooooooooooooooooooooooooooooooooooooooooooooooooo",
"oooooooooooooooooooooooooooooooooooooooooooooooooooooooooooooooooooooooooooooooooooooooooooooooooooo",
"oooooooooooooooooooooooooooooooooooooooooooooooooooooooooooooooooooooooooooooooooooooooooooooooooooo",
"oooooooooooooooooooooooooooooooooooooooooooooooooooooooooooooooooooooooooooooooooooooooooooooooooooo",
"oooooooooooooooooooooooooooooooooooooooooooooooooooooooooooooooooooooooooooooooooooooooooooooooooooo",
"oooooooooooooooooooooooooooooooooooooooooooooooooooooooooooooooooooooooooooooooooooooooooooooooooooo",
"oooooooooooooooooooooooooooooooooooooooooooooooooooooooooooooooooooooooooooooooooooooooooooooooooooo",
"oooooooooooooooooooooooooooooooooooooooooooooooooooooooooooooooooooooooooooooooooooooooooooooooooooo",
"oooooooooooooooooooooooooooooooooooooooooooooooooooooooooooooooooooooooooooooooooooooooooooooooooooo",
"oooooooooooooooooooooooooooooooooooooooooooooooooooooooooooooooooooooooooooooooooooooooooooooooooooo",
"oooooooooooooooooooooooooooooooooooooooooooooooooooooooooooooooooooooooooooooooooooooooooooooooooooo",
"oooooooooooooooooooooooooooooooooooooooooooooooooooooooooooooooooooooooooooooooooooooooooooooooooooo",
"oooooooooooooooooooooooooooooooooooooooooooooooooooooooooooooooooooooooooooooooooooooooooooooooooooo",
"oooooooooooooooooooooooooooooooooooooooooooooooooooooooooooooooooooooooooooooooooooooooooooooooooooo",
"oooooooooooooooooooooooooooooooooooooooooooooooooooooooooooooooooooooooooooooooooooooooooooooooooooo",
"oooooooooooooooooooooooooooooooooooooooooooooooooooooooooooooooooooooooooooooooooooooooooooooooooooo",
"oooooooooooooooooooooooooooooooooooooooooooooooooooooooooooooooooooooooooooooooooooooooooooooooooooo",
"oooooooooooooooooooooooooooooooooooooooooooooooooooooooooooooooooooooooooooooooooooooooooooooooooooo",
"oooooooooooooooooooooooooooooooooooooooooooooooooooooooooooooooooooooooooooooooooooooooooooooooooooo",
"oooooooooooooooooooooooooooooooooooooooooooooooooooooooooooooooooooooooooooooooooooooooooooooooooooo",
"oooooooooooooooooooooooooooooooooooooooooooooooooooooooooooooooooooooooooooooooooooooooooooooooooooo",
"oooooooooooooooooooooooooooooooooooooooooooooooooooooooooooooooooooooooooooooooooooooooooooooooooooo",
"oooooooooooooooooooooooooooooooooooooooooooooooooooooooooooooooooooooooooooooooooooooooooooooooooooo",
"oooooooooooooooooooooooooooooooooooooooooooooooooooooooooooooooooooooooooooooooooooooooooooooooooooo"
};
