/* XPM */
static char *_9851683a61743f7bf25c015c857a3bd7PkBDQ5aVSUyU6Wt[] = {
/* columns rows colors chars-per-pixel */
"100 100 41 1 ",
"  c #EF1B22",
". c #EE1C23",
"X c #EF1A24",
"o c #EB1E24",
"O c #ED1C24",
"+ c #F11724",
"@ c #F01A23",
"# c #F21B24",
"$ c #F01C24",
"% c #EB2223",
"& c #EC2123",
"* c #EB2722",
"= c #ED2421",
"- c #EC2024",
"; c #E92724",
": c #EA2923",
"> c #EC2922",
", c #E92E22",
"< c #E82B24",
"1 c #F12321",
"2 c #E63023",
"3 c #E43623",
"4 c #E63923",
"5 c #DF4523",
"6 c #DF4A21",
"7 c #DA5222",
"8 c #DC5122",
"9 c #DC5B21",
"0 c #DD5C21",
"q c #E14423",
"w c #D46422",
"e c #D47120",
"r c #BAB41F",
"t c #C98E1F",
"y c #C9901E",
"u c #C29F1F",
"i c #B2CB1E",
"p c #A9E71B",
"a c #A8E61D",
"s c #A7E919",
"d c #A8E91B",
/* pixels */
"aaaaaaaaaaaaaaaaaaaaaaaaaaaaaaaaaaaaaaaaaaaaaaaaaaaaaaaaaaaaaaaaaaaaaaaaaaaaaaaaaaaaaaaaaaaaaaaaaaaa",
"aaaaaaaaaaaaaaaaaaaaaaaaaaaaaaaaaaaaaaaaaaaaaaaaaaaaaaaaaaaaaaaaaaaaaaaaaaaaaaaaaaaaaaaaaaaaaaaaaaaa",
"aaaaaaaaaaaaaaaaaaaaaaaaaaaaaaaaaaaaaaaaaaaaaaaaaaaaaaaaaaaaaaaaaaaaaaaaaaaaaaaaaaaaaaaaaaaaaaaaaaaa",
"aaaaaaaaaaaaaaaaaaaaaaaaaaaaaaaaaaaaaaaaaaaaaaaaaaaaaaaaaaaaaaaaaaaaaaaaaaaaaaaaaaaaaaaaaaaaaaaaaaaa",
"aaaaaaaaaaaaaaaaaaaaaaaaaaaaaaaaaaaaaaaaaaaaaaaaaaaaaaaaaaaaaaaaaaaaaaaaaaaaaaaaaaaaaaaaaaaaaaaaaaaa",
"aaaaaaaaaaaaaaaaaaaaaaaaaaaaaaaaaaaaaaaaaaaaaaaaaaaaaaaaaaaaaaaaaaaaaaaaaaaaaaaaaaaaaaaaaaaaaaaaaaaa",
"aaaaaaaaaaaaaaaaaaaaaaaaaaaaaaaaaaaaaaaaaaaaaaaaaaaaaaaaaaaaaaaaaaarrrrrrrrrrrrraaaaaaaaaaaaaaaaaaaa",
"aaaaaaaaaaaaaaaaaaaaaaaaaaaaaaaaaaaaaaaaaaaaaaaaaaaaaaaaaaaaaaaarttrrrrrrrrrrrarrrrrraaaaaaaaaaaaaaa",
"aaaaaaaaaaaaaaaaaaaaaaaaaaaaaaaaaaaaaaaaaaaaaaaaaaaaaaaaaaaaaartett>>>========::tttaarrraaaaaaaaaaaa",
"aaaaaaaaaaaaaaaaaaaaaaaaaaaaaaaaaaaaaaaaaaaaaaaaaaaaaaaaaaaaatee,--222333333,>t>>>:::trtrraaaaaaaaaa",
"aaaaaaaaaaaaaaaaaaaaaaaaaaaaaaaaaaaaaaaaaaaaaaaaaaaaaaaaaaaare2-O32OOOOOOOOOOOOOOO:et>,,rttaaaaaaaaa",
"aaaaaaaaaaaaaaaaaaaaaaaaaaaaaaaaaaaaaaaaaaaaaaaaaaaaaaaaaaaarO--OOOOOOOOOOOOOOOOOOOOX#==:3trraaaaaaa",
"aaaaaaaaaaaaaaaaaaaaaaaaaaaaaaaaaaaaaaaaaaaaaaaaaaaaaaaaaaaa3-aOOOOOOOOOOOOOOOOOOOOOOOX#>O2trraaaaaa",
"aaaaaaaaaaaaaaaaaaaaaaaaaaaaaaaaaaaaaaaaaaaaaaaaaaaaaaaaaaaa3aOOXXXXXXXXXXXXXOOOOOOOOOOXXXO:ttaaaaaa",
"aaaaaaaaaaaaaaaaaaaaaaaaaaaaaaadddddddddaaaaaaaaaaaaaaaaaaaaaXXOOOOOOOOOOOOOXXXXXXOOOOOOX#XOOttaaaaa",
"aaaaaaaaaaaaaaaaaaaaaaarrrrrtyrdddddddaaaaaaaaaaaaaaaaaaaaaa2OOOOOOOOOOOOOOOOOOOOOXXXOOOX##XO,traaaa",
"aaaaaaaaaaaaaaaaaaarrttrrrttrdaaadsssddddddaaaaaaaaaaaaaaaa32aOOOO:rr.XXXXXXOOOOOOOO*XXOOX##OXatraaa",
"aaaaaaaaaaaaaaaaatttttt<<;--OO,ttraaaaaaaaaaaaaaaaaaaaaaaaa3a3-O*t,--33XXXOO-trrr,OOOOXXOOX#OXOrtaaa",
"aaaaaaaaaaaaaaare0t<2-O,,,--3aaaaaadddddddddaaaaaaaaaaaaaaaaa33*r3-3aaOOX#OXO3taaaaaaOOXOOXXXOXOtraa",
"aaaaaaaaaaaaaat0eO--O,,OOOOXXXXO:traaaaaaaaaaaaaaaaaaaaaaaaaaaara33aarrOX#OXO-taaaaaaa32OOOX#OXX3taa",
"aaaaaaaaaaaaate>OO3XXOOXXXXOOOOO-3aaaaaaaaaaaaaaaaaaaaaaaaaaaaaaaaaa33rrX#OOXOrraaaaaaa3,:OX#XOX-taa",
"aaaaaaaaaaaare$O-OXXOXXXOOOOOOOOO3aaaaaaaaaaaaaaaaaaaaaaaaaaaaaaaaaaa3-OXXXOX-,raaaaaaa33,:X##OXOrta",
"aaaaaaaaaaaatOO3OOXOXXOOOOOOOOOOadddddddddaaaaaaaaaaaaaaaaaaaaaaaaaaaa3,OX#OXO-taaaaaaaa3-OOX#OX-3ta",
"aaaaaaaaaaar>-,OOXOXXOOOOXXXXXXtraaaaappaaaaaaaaaaaaaaaaaaaaaiaaaaaaaa3aOX#OXO-taaaaaaaaa3,OX#OXOOtr",
"aaaaaaaaaaar$aXOOXOXOXX@@.....,dpaaaaaaaaaaaaaaaaaaaaaaaaaaiaraaaaaaaaa3,X#OXOOrraaaaaaaa3a,X#OXOO,r",
"aaaaaaaaaaa,>XXOOXXO@ ,rr2OOOOOOO3aaaaaaaaaaaaarraaaaaaaaaiua7aaiaaaaaa3rX#OXO-,raaaaaaaaa3,X#OXOOOr",
"aaaaaaaaaaa>#XOOOXX=r2O--3aaaaaaaaaaaaaaaaaaarraraaaaaaaaar5a3raraaaaaa3rO#OXOOOraaaaaaaaa3rO#OXOOOr",
"aaaaaaaaaar#XXXOXXe2--3aaaaaaaaaaaaaaaaaaaaartt3,arraaaaaa72rOrwriaaaaa3aO#OOXOOraaaaaaaaa33O#OXOOOr",
"aaaaaaaaaar#XOXOXO,-3aaaaaaaaaaaaaaaaaaaaaaaa,>a,aaraaaaaa32OOO3wtaaaaaa3OXXOXOOraaaaaaaaaa3O#OXOOOr",
"aaaaaaaaaaO##OOXX#O3aaaaaaaaaaaaaaaaaaaaaaaa3,>OX33traaaaa3OOOOO;taaaaaa37X#OXO-uaaaaaaaaaa3:#OXOOXr",
"aaaaaaaaaa-:XXOOX#3aaaaaaaaaaaaaaaaaaaaaaaaaa,#OXO-,raaaaaiOOOOOOrraaaaa32XXOXOOuaaaaaaaaaa3,#XOOOXr",
"aaaaaaaaaa-OXXXOO$erraaaaaaaaaaaaaaaaaaaaaaaaX#OXOOOraaaawrOOOOX-3taaaaa3rX#OXOOiraaaaaaaaa3=XXOOOXr",
"aaaaaaaaaa,OOXXXXOtrarrrrrrrrraaaaaaaaaaaaaar:#OOXOOraaaa3r;O.OXO-taaaaa3iX#OXOO,iaaaaaaaaa,4XXOOXOi",
"aaaaaaaaa3,OOOX###,::tttrrrrarrraaaaaaaaaaa33:XXOXOOraaaa3a2O OOOOrraaaawr-#OXOO-iaaaaaaaaa>#XOOOXOr",
"aaaaaaaaa3r,OOOOOOXte>>>====::rttaaaaaaaaaaa3OX#OXO-taaaaa32O@OOO-2raaaa3a&XOXOO2raaaaaaaar#=XOOXXXa",
"aaaaaaaaa33,3OOOOOOOOOO223,>t>,3rtraaaaaaaaa32X#OXOOtaaaaa3rOX.OOOOraaaaa3O#OXOO-raaaaaaaat+,OOOXOOa",
"aaaaaaaaaa33OOOOOOOOOOOOOOOOX#:O2rttaaaaaaaa3rX#OXOOrraaaa3aOO@OOOOraaaaaw6#OXOOOiaaaaaaat1#OOOXXX,a",
"aaaaaaaaaaa33::OOOOOOOOOOOOOOOXXOOrtraaaaaaa3rX#OOXO,raaaaa3OO@OOOOraaaaawq#OXOOXiaaaaare0$OOOXXOX3a",
"aaaaaaaaaaaa33:*XXOOOOOOOOOOOOOX#$O:trraaaaa3rOXXOXOOraaaaa3:OX.OOOraaaaa3:#OOXO-raaatteeOOOOXXOX-wa",
"aaaaaaaaaaaaa3-OoOXXXXXXXXXOOOOOX#OOrrraaaaa3aOX#OXX-taaaaa3*OO@OOOraaaaa3,XXOXOOrrteet<OOOXXXOXO33a",
"aaaaaaaaaaaaaaa3OOOOoOOOOOXXXOOOX##OX3ttaaaaa3OX#XOXOeaaaaa2-OO@OOOraaaaaw3X#OXO@9ettO-OO,XOOOXXO3aa",
"aaaaaaaaaaaaaaaaarrOOOOOOOOOOXOOOX#OX-3taaaaa3rX##XXOrerrrr;OOO@OOOraaaaaw2X#O@++92-OO,XOOOXXXX233aa",
"aaaaaaaaaaaaaaaaaaaaarr,OOOOOOXOOX#OXXOtraaaa3rOX##XXOettrtOOOO@OOOraaaaa3rXX@@@OOO,,XOOOXXXOO<,-3aa",
"aaaaaaaaaaaaaaaaaaaaaaaaaaaaaOOX@X#XOXO,raaaa3r-OOOX##==>==O:OO@OOOaaaaaa3rX@XOOO.XOOOXXXOOOOOr33aaa",
"aaaaaaaaaaaaaaaaaaaaaaaaaaaaaa3O:X##OXOOtaaaa3a,OOOOOOOO22--XOO@OO-aaaaaa3r;OOOOOOOOXXXOOOOO=t3-3aaa",
"aaaaaaaaaaaaaaaaaaaaaaaaaaaaaaa3,OX#OXO-taaaaa3,OOOOOOOOOOOOXOO@OO3aaaaaa3a-OOOOOOXXOOOOOXX=t3-3aaaa",
"aaaaaaaaaaaaaaaaaaaaaaaaaaaaaaa33OX#XXXXtraaaa3r,OXOOOOOOOOOOOO@O23aaaaaaa3,OOOOOOOOOOOX@ :r3-3aaaaa",
"aaaaaaaaaaaaaaaaaaaaaaaaaaaaaaaa3,##XOXX,raaaa33,,XXOOOOOOOOOOO@,33aaaaaaa3iOOOOOOOOX@ :r2O--3aaaaaa",
"aaaaaaaaaaaaaaaaaaaaaaaaaaaaaaaa3t+#OOOXOraaaaa3-OOXXXXXXOXOOO@t3-3aaaaaaawi.OOOOOX *rr2--3aaaaaaaaa",
"aaaaaaaaaaaaaaaaaaaaaaaaaaaaaaaa3eXXOOOX-raaaaaaa3OOOOOOOOOOO.tr33aaaaaaaaw3wwOO @:r2--3aaaaaaaaaaaa",
"aaaaaaaaaaaaaaaaaaaaaaaaaaaaaaaa,#XOOOXOOraaaaaaaaar2OOOOOOOo*a33aaaaaaaaaaaw;%,882--3aaaaaaaaaaaaaa",
"aaaaaaaaaaaaaaaaaaaaaaaaaaaaaarte#,OOOXOOaaaaaaaaaaaaarr,OOOOO--3aaaaaaaaaaaaairw;3aaaaaaaaaaaaaaaaa",
"aaaaaaaaaaaaaaaaaaaaaaairrrrttte,OOOXXOX-aaaaaaaaaaaaaaaaaaaaaaaaaaaaaaaaaaaaaaaaaaaaaaaaaaaaaaaaaaa",
"aaaaaaaaaaaaaaairrrrrutrrrrttt<OOOXXXOOO3aaaaaaaaaaaaaaaaaaaaaaaaaaaaaaaaaaaaaaaaaaaaaaaaaaaaaaaaaaa",
"aaaaaaaaaaaaairrrrrruut5<<::OOOO,OOOOXO,3aaaaaaaaaaaaaaaaaaaaaaaaaaaaaaaaaaaaaaaaaaaaaaaaaaaaaaaaaaa",
"aaaaaaaaaaaaiut5<<:*:-O,,,3-33OOOOXXXX233aaaaaaaaaaaaaaaaaaaaaaaaaaaaaaaaaaaaaaaaaaaaaaaaaaaaaaaaaaa",
"aaaaaaaaaaaaaw333333;33OOOOXXXXXXXOOO<3-3aaaaaaaaaaaaaaaaaaaaaaaaaaaaaaaaaaaaaaaaaaaaaaaaaaaaaaaaaaa",
"aaaaaaaaaaaaw33OOOOXXXXXXXXOOOOOOOOO2r33aaaaaaaaaaaaaaaaaaaaaaaaaaaaaaaaaaaaaaaaaaaaaaaaaaaaaaaaaaaa",
"aaaaaaaaaaaaaaOOOOOOOOOOOOOOOOOOOOO=r33aaaaaaaaaaaaaaaaaaaaaaaaaaaaaaaaaaaaaaaaaaaaaaaaaaaaaaaaaaaaa",
"aaaaaaaaaaaaaOOOOOOOOOOOOOOOOOOOXX*ta33aaaaaaaaaaaaaaaaaaaaaaaaaaaaaaaaaaaaaaaaaaaaaaaaaaaaaaaaaaaaa",
"aaaaaaaaaaaairOOOOOOOOOOOXXXXX@@.:r3-3aaaaaaaaaaaaaaaaaaaaaaaaaaaaaaaaaaaaaaaaaaaaaaaaaaaaaaaaaaaaaa",
"aaaaaaaaaaaw333OOXXXXXX@@....,rr2O--3aaaaaaaaaaaaaaaaaaaaaaaaaaaaaaaaaaaaaaaaaaaaaaaaaaaaaaaaaaaaaaa",
"aaaaaaaaaaaaaw;.......,ir7;OOO--3aaaaaaaaaaaaaaaaaaaaaaaaaaaaaaaaaaaaaaaaaaaaaaaaaaaaaaaaaaaaaaaaaaa",
"aaaaaaaaaaaaaaair7;OOOO--3aaaaaaaaaaaaaaaaaaaaaaaaaaaaaaaaaaaaaaaaaaaaaaaaaaaaaaaaaaaaaaaaaaaaaaaaaa",
"aaaaaaaaaaaaaaaaaaaaaaaaaaaaaaaaaaaaaaaaaaaaaaaaaaaaaaaaaaaaaaaaaaaaaaaaaaaaaaaaaaaaaaaaaaaaaaaaaaaa",
"aaaaaaaaaaaaaaaaaaaaaaaaaaaaaaaaaaaaaaaaaaaaaaaaaaaaaaaaaaaaaaaaaaaaaaaaaaaaaaaaaaaaaaaaaaaaaaaaaaaa",
"aaaaaaaaaaaaaaaaaaaaaaaaaaaaaaaaaaaaaaaaaaaaaaaaaaaaaaaaaaaaaaaaaaaaaaaaaaaaaaaaaaaaaaaaaaaaaaaaaaaa",
"aaaaaaaaaaaaaaaaaaaaaaaaaaaaaaaaaaaaaaaaaaaaaaaaaaaaaaaaaaaaaaaaaaaaaaaaaaaaaaaaaaaaaaaaaaaaaaaaaaaa",
"aaaaaaaaaaaaaaaaaaaaaaaaaaaaaaaaaaaaaaaaaaaaaaaaaaaaaaaaaaaaaaaaaaaaaaaaaaaaaaaaaaaaaaaaaaaaaaaaaaaa",
"aaaaaaaaaaaaaaaaaaaaaaaaaaaaaaaaaaaaaaaaaaaaaaaaaaaaaaaaaaaaaaaaaaaaaaaaaaaaaaaaaaaaaaaaaaaaaaaaaaaa",
"aaaaaaaaaaaaaaaaaaaaaaaaaaaaaaaaaaaaaaaaaaaaaaaaaaaaaaaaaaaaaaaaaaaaaaaaaaaaaaaaaaaaaaaaaaaaaaaaaaaa",
"aaaaaaaaaaaaaaaaaaaaaaaaaaaaaaaaaaaaaaaaaaaaaaaaaaaaaaaaaaaaaaaaaaaaaaaaaaaaaaaaaaaaaaaaaaaaaaaaaaaa",
"aaaaaaaaaaaaaaaaaaaaaaaaaaaaaaaaaaaaaaaaaaaaaaaaaaaaaaaaaaaaaaaaaaaaaaaaaaaaaaaaaaaaaaaaaaaaaaaaaaaa",
"aaaaaaaaaaaaaaaaaaaaaaaaaaaaaaaaaaaaaaaaaaaaaaaaaaaaaaaaaaaaaaaaaaaaaaaaaaaaaaaaaaaaaaaaaaaaaaaaaaaa",
"aaaaaaaaaaaaaaaaaaaaaaaaaaaaaaaaaaaaaaaaaaaaaaaaaaaaaaaaaaaaaaaaaaaaaaaaaaaaaaaaaaaaaaaaaaaaaaaaaaaa",
"aaaaaaaaaaaaaaaaaaaaaaaaaaaaaaaaaaaaaaaaaaaaaaaaaaaaaaaaaaaaaaaaaaaaaaaaaaaaaaaaaaaaaaaaaaaaaaaaaaaa",
"aaaaaaaaaaaaaaaaaaaaaaaaaaaaaaaaaaaaaaaaaaaaaaaaaaaaaaaaaaaaaaaaaaaaaaaaaaaaaaaaaaaaaaaaaaaaaaaaaaaa",
"aaaaaaaaaaaaaaaaaaaaaaaaaaaaaaaaaaaaaaaaaaaaaaaaaaaaaaaaaaaaaaaaaaaaaaaaaaaaaaaaaaaaaaaaaaaaaaaaaaaa",
"aaaaaaaaaaaaaaaaaaaaaaaaaaaaaaaaaaaaaaaaaaaaaaaaaaaaaaaaaaaaaaaaaaaaaaaaaaaaaaaaaaaaaaaaaaaaaaaaaaaa",
"aaaaaaaaaaaaaaaaaaaaaaaaaaaaaaaaaaaaaaaaaaaaaaaaaaaaaaaaaaaaaaaaaaaaaaaaaaaaaaaaaaaaaaaaaaaaaaaaaaaa",
"aaaaaaaaaaaaaaaaaaaaaaaaaaaaaaaaaaaaaaaaaaaaaaaaaaaaaaaaaaaaaaaaaaaaaaaaaaaaaaaaaaaaaaaaaaaaaaaaaaaa",
"aaaaaaaaaaaaaaaaaaaaaaaaaaaaaaaaaaaaaaaaaaaaaaaaaaaaaaaaaaaaaaaaaaaaaaaaaaaaaaaaaaaaaaaaaaaaaaaaaaaa",
"aaaaaaaaaaaaaaaaaaaaaaaaaaaaaaaaaaaaaaaaaaaaaaaaaaaaaaaaaaaaaaaaaaaaaaaaaaaaaaaaaaaaaaaaaaaaaaaaaaaa",
"aaaaaaaaaaaaaaaaaaaaaaaaaaaaaaaaaaaaaaaaaaaaaaaaaaaaaaaaaaaaaaaaaaaaaaaaaaaaaaaaaaaaaaaaaaaaaaaaaaaa",
"aaaaaaaaaaaaaaaaaaaaaaaaaaaaaaaaaaaaaaaaaaaaaaaaaaaaaaaaaaaaaaaaaaaaaaaaaaaaaaaaaaaaaaaaaaaaaaaaaaaa",
"aaaaaaaaaaaaaaaaaaaaaaaaaaaaaaaaaaaaaaaaaaaaaaaaaaaaaaaaaaaaaaaaaaaaaaaaaaaaaaaaaaaaaaaaaaaaaaaaaaaa",
"aaaaaaaaaaaaaaaaaaaaaaaaaaaaaaaaaaaaaaaaaaaaaaaaaaaaaaaaaaaaaaaaaaaaaaaaaaaaaaaaaaaaaaaaaaaaaaaaaaaa",
"aaaaaaaaaaaaaaaaaaaaaaaaaaaaaaaaaaaaaaaaaaaaaaaaaaaaaaaaaaaaaaaaaaaaaaaaaaaaaaaaaaaaaaaaaaaaaaaaaaaa",
"aaaaaaaaaaaaaaaaaaaaaaaaaaaaaaaaaaaaaaaaaaaaaaaaaaaaaaaaaaaaaaaaaaaaaaaaaaaaaaaaaaaaaaaaaaaaaaaaaaaa",
"aaaaaaaaaaaaaaaaaaaaaaaaaaaaaaaaaaaaaaaaaaaaaaaaaaaaaaaaaaaaaaaaaaaaaaaaaaaaaaaaaaaaaaaaaaaaaaaaaaaa",
"aaaaaaaaaaaaaaaaaaaaaaaaaaaaaaaaaaaaaaaaaaaaaaaaaaaaaaaaaaaaaaaaaaaaaaaaaaaaaaaaaaaaaaaaaaaaaaaaaaaa",
"aaaaaaaaaaaaaaaaaaaaaaaaaaaaaaaaaaaaaaaaaaaaaaaaaaaaaaaaaaaaaaaaaaaaaaaaaaaaaaaaaaaaaaaaaaaaaaaaaaaa",
"aaaaaaaaaaaaaaaaaaaaaaaaaaaaaaaaaaaaaaaaaaaaaaaaaaaaaaaaaaaaaaaaaaaaaaaaaaaaaaaaaaaaaaaaaaaaaaaaaaaa",
"aaaaaaaaaaaaaaaaaaaaaaaaaaaaaaaaaaaaaaaaaaaaaaaaaaaaaaaaaaaaaaaaaaaaaaaaaaaaaaaaaaaaaaaaaaaaaaaaaaaa",
"aaaaaaaaaaaaaaaaaaaaaaaaaaaaaaaaaaaaaaaaaaaaaaaaaaaaaaaaaaaaaaaaaaaaaaaaaaaaaaaaaaaaaaaaaaaaaaaaaaaa",
"aaaaaaaaaaaaaaaaaaaaaaaaaaaaaaaaaaaaaaaaaaaaaaaaaaaaaaaaaaaaaaaaaaaaaaaaaaaaaaaaaaaaaaaaaaaaaaaaaaaa",
"aaaaaaaaaaaaaaaaaaaaaaaaaaaaaaaaaaaaaaaaaaaaaaaaaaaaaaaaaaaaaaaaaaaaaaaaaaaaaaaaaaaaaaaaaaaaaaaaaaaa",
"aaaaaaaaaaaaaaaaaaaaaaaaaaaaaaaaaaaaaaaaaaaaaaaaaaaaaaaaaaaaaaaaaaaaaaaaaaaaaaaaaaaaaaaaaaaaaaaaaaaa",
"aaaaaaaaaaaaaaaaaaaaaaaaaaaaaaaaaaaaaaaaaaaaaaaaaaaaaaaaaaaaaaaaaaaaaaaaaaaaaaaaaaaaaaaaaaaaaaaaaaaa",
"aaaaaaaaaaaaaaaaaaaaaaaaaaaaaaaaaaaaaaaaaaaaaaaaaaaaaaaaaaaaaaaaaaaaaaaaaaaaaaaaaaaaaaaaaaaaaaaaaaaa"
};
