/* XPM */
static char *font[] = {
/* columns rows colors chars-per-pixel */
"128 48 2 1 ",
"  c None",
". c black",
/* pixels */
"                                                                                                                                ",
"           ..    .. ..   .. ..     .     ..   .  ...      ..        ..   ..                                                   . ",
"           ..    .. ..  .......  .....  . .  .  .. ..     ..       ..     ..     .. ..     ..                                .  ",
"           ..    .. ..   .. ..  .. .    ..  .   .. ..     ..      ..       ..     ...      ..                               .   ",
"           ..            .. ..   .....     .     ...              ..       ..   .......  ......          ......            .    ",
"           ..            .. ..     . ..   .  .. .. .. .           ..       ..     ...      ..     ..                      .     ",
"                        ....... ......   .  . . ..  ..             ..     ..     .. ..     ..     ..              ..     .      ",
"           ..            .. ..     .    .   ..   ......             ..   ..                      ..               ..    .       ",
"                                                                                                                                ",
"  ...      ..    .....   ......    ...  ......    ....  .......  ....    .....                      ..            ..     .....  ",
" .  ..    ...   ..   ..     ..    ....  ..       ..     ..   .. ..   .  ..   ..   ..      ..       ..              ..   ....... ",
"..   ..    ..       ...    ..    .. ..  ......  ..          ..  ...  .  ..   ..   ..      ..      ..    .......     ..  ..   .. ",
"..   ..    ..     ....    ....  ..  ..       .. ......     ..    ....    ......                  ..                  ..     ..  ",
"..   ..    ..    ....        .. .......      .. ..   ..   ..    .  ....      ..   ..      ..      ..    .......     ..    ...   ",
" ..  .     ..   ...     ..   ..     ..  ..   .. ..   ..   ..    .    ..     ..    ..      ..       ..              ..           ",
"  ...    ...... .......  .....      ..   .....   .....    ..     .....   ....            ..         ..            ..      ...   ",
"                                                                                                                                ",
" .....    ...   ......    ....  .....   ....... .......   ..... ..   ..  ......      .. ..   ..  ..     ..   .. ..   ..  .....  ",
".     .  .. ..  ..   ..  ..  .. ..  ..  ..      ..       ..     ..   ..    ..        .. ..  ..   ..     ... ... ...  .. ..   .. ",
". ... . ..   .. ..   .. ..      ..   .. ..      ..      ..      ..   ..    ..        .. .. ..    ..     ....... .... .. ..   .. ",
". . . . ..   .. ......  ..      ..   .. ......  ......  ..  ... .......    ..        .. ....     ..     ....... ....... ..   .. ",
". ..... ....... ..   .. ..      ..   .. ..      ..      ..   .. ..   ..    ..        .. .....    ..     .. . .. .. .... ..   .. ",
".       ..   .. ..   ..  ..  .. ..  ..  ..      ..       ..  .. ..   ..    ..   ..   .. .. ...   ..     ..   .. ..  ... ..   .. ",
" .....  ..   .. ......    ....  .....   ....... ..        ..... ..   ..  ......  .....  ..  ...  ...... ..   .. ..   ..  .....  ",
"                                                                                                                                ",
"......   .....  ......   ....    ...... ..   .. ..   .. ..   .. ..   ..  ..  .. .......   ....  .        ....     ...           ",
"..   .. ..   .. ..   .. ..  ..     ..   ..   .. ..   .. ..   .. ... ...  ..  ..     ...   ..     .         ..    .. ..          ",
"..   .. ..   .. ..   .. ..         ..   ..   .. ..   .. .. . ..  .....   ..  ..    ...    ..      .        ..                   ",
"..   .. ..   .. ..  ...  .....     ..   ..   .. ... ... .......   ...     ....    ...     ..       .       ..                   ",
"......  .. .... .....        ..    ..   ..   ..  .....  .......  .....     ..    ...      ..        .      ..                   ",
"..      ..  ..  .. ...  ..   ..    ..   ..   ..   ...   ... ... ... ...    ..   ...       ..         .     ..                   ",
"..       .... . ..  ...  .....     ..    .....     .    ..   .. ..   ..    ..   .......   ....        .  ....           ....... ",
"                                                                                                                                ",
"   .            ..                   ..             ...         ..         ..       ..  ..        ...                           ",
"    .           ..                   ..            ..    ...... ..                      ..         ..                           ",
"         .....  ......   ......  ......  .....   ...... ..   .. ......    ...      ...  ..  ...    ..   ......  ......   .....  ",
"             .. ..   .. ..      ..   .. ..   ..    ..   ..   .. ..   ..    ..       ..  ......     ..   . .. .. ..   .. ..   .. ",
"         ...... ..   .. ..      ..   .. .......    ..    ...... ..   ..    ..       ..  .....      ..   . .. .. ..   .. ..   .. ",
"        ..   .. ..   .. ..      ..   .. ..         ..        .. ..   ..    ..       ..  .. ...     ..   . .. .. ..   .. ..   .. ",
"         ......  .....   ......  ......  .....     ..    .....  ..   ..  ......  ....   ..  ...  ...... . .. .. ..   ..  .....  ",
"                                                                                                                                ",
"                                   ..                                                       ..     ..     ..                    ",
"......   ......                    ..                                   ..   ..            ..      ..      ..                   ",
"..   .. ..   ..  .. ...  .....   ...... ..   ..  ..  .. . .. .. ..   .. ..   .. .......    ..      ..      ..    ...            ",
"..   .. ..   ..  ...    ..         ..   ..   ..  ..  .. . .. .. ....... ..   ..    ...    ..       ..       ..  . ... .         ",
"......   ......  ..      .....     ..   ..   ..  ..  .. . .. ..   ...    ......   ...      ..      ..      ..      ...          ",
"..           ..  ..          ..    ..   ..   ..   ....  . .. .. .......      ..  ...       ..      ..      ..                   ",
"..           ..  ..     ......     ..    ......    ..    ...... ..   ..  .....  .......     ..     ..     ..                    "
};
